<?xml version="1.0" encoding="UTF-8" standalone="no"?>
<svg
   width="24"
   height="24"
   fill-rule="evenodd"
   clip-rule="evenodd"
   version="1.1"
   id="svg2406"
   sodipodi:docname="Cloud-Download.svg"
   inkscape:version="1.2.2 (b0a84865, 2022-12-01)"
   xmlns:inkscape="http://www.inkscape.org/namespaces/inkscape"
   xmlns:sodipodi="http://sodipodi.sourceforge.net/DTD/sodipodi-0.dtd"
   xmlns="http://www.w3.org/2000/svg"
   xmlns:svg="http://www.w3.org/2000/svg">
  <defs
     id="defs2410" />
  <sodipodi:namedview
     id="namedview2408"
     pagecolor="#ffffff"
     bordercolor="#000000"
     borderopacity="0.25"
     inkscape:showpageshadow="2"
     inkscape:pageopacity="0.0"
     inkscape:pagecheckerboard="0"
     inkscape:deskcolor="#d1d1d1"
     showgrid="false"
     inkscape:zoom="42.791667"
     inkscape:cx="6.6368062"
     inkscape:cy="12"
     inkscape:window-width="1652"
     inkscape:window-height="1205"
     inkscape:window-x="0"
     inkscape:window-y="25"
     inkscape:window-maximized="0"
     inkscape:current-layer="svg2406" />
  <path
     d="M11.5 8h1v7.826l2.5-3.076.753.665-3.753 4.585-3.737-4.559.737-.677 2.5 3.064v-7.828zm7 12h-13c-2.481 0-4.5-2.019-4.5-4.5 0-2.178 1.555-4.038 3.698-4.424l.779-.14.043-.79c.185-3.447 3.031-6.146 6.48-6.146 3.449 0 6.295 2.699 6.479 6.146l.043.79.78.14c2.142.386 3.698 2.246 3.698 4.424 0 2.481-2.019 4.5-4.5 4.5m.979-9.908c-.212-3.951-3.473-7.092-7.479-7.092s-7.267 3.141-7.479 7.092c-2.57.463-4.521 2.706-4.521 5.408 0 3.037 2.463 5.5 5.5 5.5h13c3.037 0 5.5-2.463 5.5-5.5 0-2.702-1.951-4.945-4.521-5.408"
     id="path2404" />
</svg>
