<?xml version="1.0" encoding="UTF-8" standalone="no"?>
<svg
   viewBox="-0.5 -0.5 16 16"
   fill="currentColor"
   id="User-Circle.svg"
   height="16"
   width="16"
   version="1.1"
   sodipodi:docname="User-Circle.svg"
   inkscape:version="1.2.2 (b0a84865, 2022-12-01)"
   xmlns:inkscape="http://www.inkscape.org/namespaces/inkscape"
   xmlns:sodipodi="http://sodipodi.sourceforge.net/DTD/sodipodi-0.dtd"
   xmlns="http://www.w3.org/2000/svg"
   xmlns:svg="http://www.w3.org/2000/svg">
  <defs
     id="User-Circle" />
  <sodipodi:namedview
     id="namedview3967"
     pagecolor="#ffffff"
     bordercolor="#000000"
     borderopacity="0.25"
     inkscape:showpageshadow="2"
     inkscape:pageopacity="0.0"
     inkscape:pagecheckerboard="0"
     inkscape:deskcolor="#d1d1d1"
     showgrid="false"
     inkscape:zoom="64.1875"
     inkscape:cx="4.4245375"
     inkscape:cy="8"
     inkscape:window-width="1652"
     inkscape:window-height="1205"
     inkscape:window-x="0"
     inkscape:window-y="25"
     inkscape:window-maximized="0"
     inkscape:current-layer="User-Circle.svg" />
  <path
     d="M7.5 0.15c-5.65803515625 0 -9.194302734375 6.124998046875 -6.365285156250001 11.025 2.82901171875 4.900001953125 9.901552734375 4.900001953125 12.730570312500001 0C14.510384765625 10.057658203125 14.85 8.790193359375 14.85 7.5 14.845716796875 3.442482421875 11.557517578125 0.1542890625 7.5 0.15ZM3.68930859375 12.411779296875c1.7788242187499999 -2.782013671875 5.84255859375 -2.782013671875 7.621382812499999 0 -2.241421875 1.743205078125 -5.3799609375 1.743205078125 -7.621382812499999 0Zm1.549154296875 -5.477162109375c0 -1.7409375 1.8846152343749998 -2.829017578125 3.39230859375 -1.9585488281249999 1.5076875 0.870462890625 1.5076875 3.04662890625 0 3.9170976562499997 -0.34376953125 0.198474609375 -0.733822265625 0.302970703125 -1.130771484375 0.30298828125 -1.2490546875 0.000052734375 -2.261537109375 -1.01248828125 -2.261537109375 -2.261537109375Zm6.909 4.69339453125c-0.630568359375 -0.9137460937499999 -1.517220703125 -1.620662109375 -2.548470703125 -2.031849609375 2.0514843750000002 -1.6158046875 1.584498046875 -4.8464765625 -0.8405683593750001 -5.815212890625 -2.42506640625 -0.96873046875 -4.989421875 1.05101953125 -4.61583984375 3.635560546875 0.124458984375 0.861041015625 0.574974609375 1.6413515625 1.258423828125 2.17965234375 -1.03125 0.4111875 -1.91790234375 1.118103515625 -2.548470703125 2.031849609375 -3.18141796875 -3.5776171875 -1.29692578125 -9.25761328125 3.392091796875 -10.224 4.6890234374999995 -0.966380859375 8.665798828125 3.505640625 7.15819921875 8.049638671875 -0.266279296875 0.802599609375 -0.693439453125 1.54245703125 -1.2553652343750001 2.174361328125Z"
     stroke-width="1"
     id="path3964" />
</svg>
